<svg xmlns="http://www.w3.org/2000/svg" width="59" height="72" fill="none"><path fill="#fff" fill-rule="evenodd" d="M58.3 21.2a3 3 0 0 0-2.4-1.1H17.3l-2.5-7.3H3.1a3 3 0 0 0-3 3 3 3 0 0 0 3 3h7.4L24 58.3H49a3 3 0 0 0 3-3 3 3 0 0 0-3-2.9H28.3l-1.7-5h23a3 3 0 0 0 3-2.2l6.2-21.5a3 3 0 0 0-.5-2.6Zm-7.7 9.6h-4.9V26H52l-1.4 4.8ZM32.9 26v4.8h6.8V26H33Zm6.8 10.7v4.8H33v-4.8h6.8ZM27 30.8V26h-7.6l1.6 4.8h6Zm-4 6h4v4.7h-2.3l-1.7-4.8Zm22.8 0v4.7h1.7l1.4-4.8h-3Z" clip-rule="evenodd"/><path fill="#fff" d="M27.4 71.9c3.2 0 5.8-2.6 5.8-5.7 0-3.2-2.6-5.7-5.8-5.7a5.7 5.7 0 0 0-5.8 5.7c0 3.1 2.6 5.7 5.8 5.7ZM44.8 71.9c3.2 0 5.8-2.6 5.8-5.7 0-3.2-2.6-5.7-5.8-5.7a5.7 5.7 0 0 0-5.7 5.7c0 3.1 2.6 5.7 5.7 5.7ZM29.3 10.6 37 16a2 2 0 0 0 2.8-.5 2 2 0 0 0-.5-2.9L36.8 11l9.5-5 4.6 11.9h4.4l-6-15.5A2 2 0 0 0 48 1a2 2 0 0 0-1.6.1L33 8.2l-3-2.1a2 2 0 0 0-2.7.4L18.9 17l-.4.7h5.1l5.7-7.2Z"/></svg>