<svg xmlns="http://www.w3.org/2000/svg" width="78" height="62" fill="none"><path fill="#fff" fill-rule="evenodd" d="M0 45.9a16.1 16.1 0 1 1 32.3 0 16.1 16.1 0 0 1-32.3 0ZM11 51a7.3 7.3 0 1 0 10.3-10.3A7.3 7.3 0 0 0 11 51ZM60.9 46a8 8 0 1 0 0 16.1 8 8 0 0 0 0-16.1Zm-5.1 8a5 5 0 1 0 10.1 0 5 5 0 0 0-10.1 0Z" clip-rule="evenodd"/><path fill="#fff" fill-rule="evenodd" d="M75.4 31.3 78 49.7S78.6 53 75 53h-2a12.2 12.2 0 0 0-24.3 0H38.5A23.4 23.4 0 0 0 3 26.4c0-3 0-13.9 2.3-20.2 0 0 1-2.6 3.5-3.2 2.3-.6 24.7-3 24.7-3s2.3 0 3.1 1.9l10.6 21.9L59 25v-5.3h4V14h3v12l5.8.6s3 .6 3.6 4.7ZM16.1 19.8h7V6.2h-7v13.6Zm17 0h-7V6.2h7v13.6ZM49 36h4v-7h-4v7Zm11 0h-4v-7h4v7Zm3 0h4v-7h-4v7Z" clip-rule="evenodd"/></svg>